<svg xmlns="http://www.w3.org/2000/svg" viewBox="0 0 24 24" fill="currentColor">
  <path fillRule="evenodd" d="M12 2.25c-5.385 0-9.75 4.365-9.75 9.75s4.365 9.75 9.75 9.75 9.75-4.365 9.75-9.75S17.385 2.25 12 2.25ZM12.75 6a.75.75 0 0 0-1.5 0v.75H9.75a.75.75 0 0 0 0 1.5h1.5v1.5a.75.75 0 0 0 1.5 0V9.75h1.5a.75.75 0 0 0 0-1.5h-1.5V6ZM6 12a.75.75 0 0 1 .75-.75h.75a.75.75 0 0 1 0 1.5H6.75A.75.75 0 0 1 6 12ZM17.25 12a.75.75 0 0 0-.75.75v.75H14.25a.75.75 0 0 0 0 1.5h1.5v1.5a.75.75 0 0 0 1.5 0v-1.5h1.5a.75.75 0 0 0 0-1.5h-1.5v-.75a.75.75 0 0 0-.75-.75ZM9 15.75a.75.75 0 0 0-1.5 0v.75H6.75a.75.75 0 0 0 0 1.5H7.5v1.5a.75.75 0 0 0 1.5 0v-1.5h1.5a.75.75 0 0 0 0-1.5h-1.5v-.75ZM12 15.75a.75.75 0 0 0-1.5 0v.75H9.75a.75.75 0 0 0 0 1.5h1.5v1.5a.75.75 0 0 0 1.5 0v-1.5h1.5a.75.75 0 0 0 0-1.5h-1.5v-.75Z" clipRule="evenodd" />
</svg>